<svg height="512" viewBox="0 0 512 512" width="512" xmlns="http://www.w3.org/2000/svg"><g id="Groceries_delivery_service" data-name="Groceries delivery service"><g id="Filled"><path d="m16 40s25.878-.55 41.5 15.07 16.711 28.544 9.413 35.842-20.22 6.21-35.841-9.412-15.072-41.5-15.072-41.5z" fill="#a6d96b"/><path d="m51.14 49.881a52.137 52.137 0 0 1 -25.258 25.261 41.817 41.817 0 0 0 5.191 6.358c15.62 15.621 28.543 16.711 35.841 9.413s6.208-20.22-9.414-35.84a41.839 41.839 0 0 0 -6.36-5.192z" fill="#87ba50"/><circle cx="76" cy="140" fill="#ffd071" r="60"/><path d="m93.446 82.585a67.9 67.9 0 0 1 -76 44.358 60 60 0 1 0 76-44.358z" fill="#f9c05d"/><rect fill="#fff8cc" height="24" rx="12" width="24" x="48" y="80"/><circle cx="40" cy="112" fill="#fff8cc" r="8"/><path d="m96 104h64v72h-64z" fill="#e3e2e8"/><path d="m176 64h-64l-16 40h64l16.842-37.895z" fill="#f9f8ff"/><path d="m160 104v72h32v-72l-15.158-37.895z" fill="#bfbecc"/><path d="m112 32h64v32h-64z" fill="#e3e2e8"/><path d="m8 144 24 16 24-16 24 16 24-16 24 16 24-16 24 16 24-16v192a32 32 0 0 1 -32 32h-128a32 32 0 0 1 -32-32z" fill="#d8ad82"/><path d="m200 172.414a292.127 292.127 0 0 1 -192 126.962v36.624a32 32 0 0 0 32 32h128a32 32 0 0 0 32-32z" fill="#cc9f76"/><rect fill="#e3e2e8" height="496" rx="32" width="272" x="232" y="8"/><path d="m504 62.864c-62.018 91.007-159.2 156.127-272 175.811v233.325a32 32 0 0 0 32 32h208a32 32 0 0 0 32-32z" fill="#d2d1db"/><rect fill="#a6d96b" height="328" rx="16" width="208" x="264" y="80"/><path d="m472 121.443v-25.443a16 16 0 0 0 -16-16h-176a16 16 0 0 0 -16 16v118.538a350.676 350.676 0 0 1 208-93.095z" fill="#87ba50"/><path d="m256 240-24-24h-59.2a31.569 31.569 0 0 0 -31.2 36.369l6.593 42.851a29.223 29.223 0 0 0 28.878 24.78h54.929l24-24h152v-56z" fill="#ffdecf"/><circle cx="368" cy="456" fill="#bfbecc" r="16"/><circle cx="256" cy="40" fill="#f9f8ff" r="16"/><circle cx="288" cy="16" fill="#f9f8ff" r="8"/><path d="m304.468 296h103.532v-56h-63.891a180.372 180.372 0 0 1 -39.641 56z" fill="#ffcdbe"/><circle cx="36" cy="188" fill="#e0cab8" r="20"/><circle cx="68" cy="220" fill="#e0cab8" r="12"/><g fill="#ffefe9"><rect height="24" rx="12" transform="matrix(0 -1 1 0 -64 408)" width="24" x="160" y="224"/><circle cx="192" cy="256" r="8"/></g></g><g id="Outline"><path d="m472 0h-208a40.045 40.045 0 0 0 -40 40v144a8 8 0 0 0 16 0v-144a24.028 24.028 0 0 1 24-24h208a24.028 24.028 0 0 1 24 24v432a24.028 24.028 0 0 1 -24 24h-208a24.028 24.028 0 0 1 -24-24v-120a8 8 0 0 0 -16 0v120a40.045 40.045 0 0 0 40 40h208a40.045 40.045 0 0 0 40-40v-432a40.045 40.045 0 0 0 -40-40z"/><path d="m172.8 208a39.577 39.577 0 0 0 -39.109 45.585l6.592 42.853a37.024 37.024 0 0 0 36.788 31.562c56.005-.8 56.447 1.794 60.586-2.343l21.656-21.657h116.687a8 8 0 0 0 0-16c-122.859.834-121.259-2.053-125.657 2.343l-21.656 21.657h-51.616a21.108 21.108 0 0 1 -20.971-18l-6.6-42.848a23.574 23.574 0 0 1 23.3-27.152h55.89c21.242 20.238 21.584 24 27.313 24h119.997a8 8 0 0 0 0-16h-116.687l-21.656-21.657c-4.273-4.271-5.618-1.555-64.857-2.343z"/><path d="m8 192a8 8 0 0 0 8-8v-25.051c7.833 4.193 13.551 12.295 20.435 7.707l19.557-13.041 19.563 13.041a8 8 0 0 0 8.875 0l19.562-13.041 19.562 13.041a8 8 0 0 0 8.875 0l19.563-13.042 19.567 13.042c6.874 4.587 12.521-3.47 20.441-7.71v25.054a8 8 0 0 0 16 0v-40a8 8 0 0 0 -4.225-7.054c-7-3.74-11.12 3.626-27.779 13.44l-19.566-13.042a8 8 0 0 0 -8.875 0l-19.564 13.041-19.561-13.041a8 8 0 0 0 -8.875 0l-19.563 13.041-19.562-13.041a8 8 0 0 0 -8.876 0l-19.554 13.041c-16.939-9.982-20.785-17.173-27.77-13.439a8 8 0 0 0 -4.23 7.054v40a8 8 0 0 0 8 8z"/><path d="m197.294 351.168a8 8 0 0 0 -11.292.7 24.025 24.025 0 0 1 -18.002 8.132h-128a24.028 24.028 0 0 1 -24-24v-88a8 8 0 0 0 -16 0v88a40.045 40.045 0 0 0 40 40h128a40.033 40.033 0 0 0 30-13.54 8 8 0 0 0 -.706-11.292z"/><path d="m88 120a8 8 0 0 0 16 0v-14.459l13.416-33.541h46.768c-15.4 39.172-11.9 24.413-12.184 48a8 8 0 0 0 16 0v-14.459l8-20 8 20v14.459a8 8 0 0 0 16 0c-.294-27.266 3.222-6.984-16-57.54v-30.46a8 8 0 0 0 -8-8h-64a8 8 0 0 0 -8 8v30.46c-16.186 40.993-16 38.809-16 41.54zm32-80h48v16h-48z"/><path d="m29.192 90.7a67.782 67.782 0 0 0 -17.321 26.636 8 8 0 0 0 15.086 5.332 52.092 52.092 0 0 1 49.043-34.668 7.956 7.956 0 0 0 1.989-.26 8 8 0 0 0 9.931-6.608 83.563 83.563 0 0 0 -3.284-33.518c-5.15-16.478-18.08-38.061-50.436-47.306a8 8 0 0 0 -4.4 15.384c28.26 8.075 38.024 27.563 41.2 42.794a77.94 77.94 0 0 0 -7.847-9.071c-17.827-17.83-46.13-17.44-47.321-17.415a8 8 0 0 0 -7.832 7.832c-.025 1.2-.419 29.5 17.411 47.326 1.261 1.256 2.521 2.422 3.781 3.542zm22.652-29.971c5.229 5.229 8.1 9.517 9.661 12.85a67.983 67.983 0 0 0 -19.105 7.336c-9.022-7.115-15.29-15.683-17.708-32.222 7.789 1.138 19.254 4.138 27.152 12.036z"/><path d="m344 456a24 24 0 1 0 24-24 24.028 24.028 0 0 0 -24 24zm32 0a8 8 0 1 1 -8-8 8.009 8.009 0 0 1 8 8z"/><path d="m392 48a8 8 0 0 0 0-16h-80a8 8 0 0 0 0 16z"/><circle cx="424" cy="40" r="8"/><circle cx="8" cy="216" r="8"/><path d="m416 320v-112a8 8 0 0 0 -16 0v112a8 8 0 0 0 16 0z"/><path d="m256 96v104a8 8 0 0 0 16 0v-104a8.009 8.009 0 0 1 8-8h176a8.009 8.009 0 0 1 8 8v296a8.009 8.009 0 0 1 -8 8h-176a8.009 8.009 0 0 1 -8-8v-56a8 8 0 0 0 -16 0v56a24.028 24.028 0 0 0 24 24h176a24.028 24.028 0 0 0 24-24v-296a24.028 24.028 0 0 0 -24-24h-176a24.028 24.028 0 0 0 -24 24z"/></g></g></svg>